<?xml version="1.0" standalone="no"?>
<!DOCTYPE svg PUBLIC "-//W3C//DTD SVG 20010904//EN"
 "http://www.w3.org/TR/2001/REC-SVG-20010904/DTD/svg10.dtd">
<svg version="1.0" xmlns="http://www.w3.org/2000/svg"
 width="500.000000pt" height="500.000000pt" viewBox="0 0 500.000000 500.000000"
 preserveAspectRatio="xMidYMid meet">
<metadata>
Created by potrace 1.14, written by Peter Selinger 2001-2017
</metadata>
<g transform="translate(0.000000,500.000000) scale(0.100000,-0.100000)"
fill="#000000" stroke="none">
<path d="M1655 4978 c3 -13 7 -29 7 -35 1 -7 5 -13 10 -13 5 0 6 -4 3 -10 -3
-5 -1 -10 6 -10 7 0 9 -3 6 -6 -3 -4 -1 -16 5 -28 14 -26 14 -70 0 -99 -6 -12
-18 -40 -27 -62 -9 -22 -28 -64 -43 -94 -15 -29 -26 -57 -24 -62 1 -5 -3 -9
-9 -9 -5 0 -8 -4 -4 -9 3 -5 1 -12 -4 -15 -5 -3 -12 -22 -15 -41 -4 -19 -11
-35 -15 -35 -8 0 -64 -108 -75 -146 -12 -40 -23 -181 -28 -366 -2 -54 -6 -98
-9 -98 -7 0 -4 -40 5 -61 4 -8 2 -27 -3 -42 l-10 -26 -46 25 c-25 14 -45 23
-45 20 0 -4 -10 -2 -21 5 -12 6 -38 12 -58 14 -42 3 -61 8 -78 18 -7 5 -13 4
-13 -2 0 -10 -19 -9 -37 2 -7 5 -16 -1 -23 -15 -11 -22 -10 -22 4 -4 9 11 16
15 16 9 0 -17 -28 -35 -41 -27 -7 4 -9 3 -5 -4 7 -12 -27 -35 -37 -25 -4 3
-14 0 -24 -8 -15 -12 -16 -12 -8 1 8 13 7 13 -8 1 -10 -8 -17 -9 -17 -3 0 6
-9 9 -20 7 -12 -2 -18 0 -14 6 3 6 0 9 -7 8 -8 -2 -24 2 -36 9 -15 8 -23 9
-23 2 0 -5 -7 -10 -16 -10 -9 0 -12 -5 -8 -11 4 -7 1 -10 -7 -7 -8 3 -13 11
-11 18 3 11 0 11 -12 1 -9 -7 -13 -18 -10 -23 3 -5 -4 -4 -15 4 -18 11 -23 11
-30 0 -7 -11 -9 -11 -14 2 -4 9 -12 16 -18 16 -8 0 -9 -4 0 -13 17 -22 1 -27
-35 -12 -25 10 -34 11 -38 2 -5 -9 -7 -9 -12 0 -3 7 -12 9 -20 6 -8 -3 -14 0
-14 6 0 6 -7 8 -16 4 -10 -4 -20 1 -26 11 -9 16 -11 16 -36 0 -52 -34 -53 -38
-15 -73 19 -18 36 -38 37 -44 6 -32 18 -57 27 -52 5 4 5 -4 0 -19 -7 -18 -6
-28 4 -36 9 -8 13 -21 9 -36 -4 -16 -2 -24 6 -24 10 0 10 -3 0 -15 -9 -11 -9
-15 -1 -15 7 0 9 -4 6 -10 -3 -5 -2 -10 3 -10 5 0 9 -7 9 -15 0 -8 -4 -12 -9
-9 -15 10 -8 -13 12 -36 23 -27 23 -26 10 -49 -7 -14 -4 -24 10 -39 22 -23 26
-42 9 -42 -7 0 -4 -11 6 -27 12 -17 14 -28 7 -31 -6 -2 -3 -11 9 -23 10 -10
19 -27 19 -38 0 -21 23 -45 33 -34 4 3 7 1 7 -6 0 -7 5 -9 13 -5 8 5 8 2 -2
-9 -7 -9 -20 -17 -27 -17 -8 0 -14 -4 -14 -8 0 -5 -14 -9 -32 -10 -17 0 -34
-6 -38 -12 -4 -6 -17 -12 -28 -13 -12 -1 -22 -5 -22 -10 0 -4 -4 -5 -10 -2 -5
3 -10 1 -10 -4 0 -6 -3 -10 -8 -9 -14 4 -71 -21 -90 -40 -11 -11 -30 -23 -42
-27 -18 -6 -20 -9 -9 -16 8 -5 10 -9 4 -10 -5 -1 -14 -2 -20 -4 -5 -1 -21 -3
-35 -4 -23 -2 -23 -3 -5 -11 19 -7 18 -9 -8 -19 -16 -6 -33 -11 -38 -11 -5 0
-9 -4 -9 -10 0 -5 -7 -10 -16 -10 -8 0 -12 -4 -9 -10 3 -5 2 -10 -3 -10 -5 0
-22 -11 -38 -25 -16 -14 -32 -25 -35 -25 -3 0 -7 -23 -8 -52 -1 -29 -7 -56
-14 -60 -6 -4 -12 -15 -12 -25 0 -11 -7 -17 -18 -17 -9 1 -17 -2 -17 -7 0 -5
-9 -9 -21 -9 -11 0 -17 -4 -14 -10 6 -9 -23 -14 -87 -13 l-28 1 0 -98 c0 -95
1 -99 23 -102 12 -2 21 -9 20 -15 -1 -6 10 -14 26 -18 17 -3 31 -14 34 -26 3
-10 12 -19 21 -19 9 0 16 -4 16 -10 0 -5 -6 -10 -12 -10 -9 0 -8 -3 2 -9 8 -6
18 -7 24 -4 5 4 7 -1 3 -12 -5 -11 -1 -22 10 -31 17 -12 17 -14 -2 -28 -19
-14 -19 -15 8 -21 31 -8 33 -13 10 -30 -15 -11 -11 -14 27 -20 l43 -7 -24 -19
-24 -19 23 0 c15 0 21 -4 16 -12 -4 -6 -3 -9 2 -6 5 3 20 2 33 -3 19 -7 22
-12 13 -21 -16 -16 -15 -28 3 -28 8 0 15 -4 15 -10 0 -5 10 -10 21 -10 16 0
20 -5 16 -19 -4 -17 2 -20 45 -26 40 -6 47 -9 37 -21 -9 -11 -8 -14 2 -16 8 0
19 -2 24 -3 6 -2 16 -3 24 -4 11 -1 11 -4 1 -16 -12 -14 -10 -15 12 -11 14 2
31 0 39 -5 10 -6 10 -9 2 -9 -7 0 -13 -4 -13 -8 0 -4 16 -6 37 -4 30 4 35 2
30 -12 -5 -12 0 -16 17 -16 13 0 29 -7 36 -15 9 -11 22 -14 42 -10 16 4 28 2
28 -3 0 -6 9 -8 20 -5 11 3 20 9 20 13 0 5 14 3 30 -3 29 -11 42 -37 19 -37
-19 0 -60 -38 -49 -45 5 -3 10 -13 10 -21 0 -8 -4 -13 -9 -10 -4 3 -16 -3 -25
-13 -17 -18 -16 -20 5 -26 21 -7 22 -8 5 -20 -9 -7 -17 -17 -17 -22 1 -4 -3
-9 -9 -9 -24 -3 -23 -6 5 -19 17 -7 24 -14 17 -14 -7 -1 -21 -8 -30 -18 -18
-17 -46 -66 -34 -59 4 2 12 -2 19 -9 10 -10 7 -19 -13 -40 -24 -26 -24 -28 -7
-41 12 -10 14 -13 4 -12 -8 2 -16 -4 -18 -14 -3 -9 3 -18 13 -20 15 -3 16 -5
3 -18 -8 -9 -20 -26 -27 -38 -10 -18 -10 -22 3 -22 8 0 15 -9 15 -20 0 -11 -5
-19 -11 -17 -6 1 -13 -6 -14 -15 -2 -11 2 -15 11 -11 10 4 14 -3 14 -21 0 -15
6 -29 14 -32 12 -5 10 -14 -9 -52 -21 -41 -22 -49 -9 -63 11 -12 12 -23 5 -43
-6 -14 -7 -25 -3 -25 21 3 28 -3 27 -23 -1 -12 -7 -24 -13 -26 -17 -5 -15 -19
3 -19 8 0 15 3 15 7 0 4 6 7 13 7 9 0 12 -9 9 -24 -2 -13 -7 -22 -9 -19 -9 9
-31 -18 -26 -31 3 -7 1 -13 -5 -13 -6 0 -13 -13 -17 -30 -4 -16 -11 -33 -17
-36 -7 -5 -8 -2 -3 7 7 11 5 11 -11 -1 -35 -28 -46 -40 -34 -40 6 0 9 -4 5 -9
-8 -13 24 -29 46 -24 19 5 32 29 23 44 -3 5 12 8 33 7 21 0 49 4 62 11 12 7
25 10 29 7 3 -3 14 1 24 11 10 9 18 12 18 6 0 -17 58 -13 64 4 6 14 10 12 32
-8 17 -16 27 -20 32 -12 10 15 41 11 53 -8 7 -11 9 -11 9 -1 0 7 5 10 11 7 6
-4 8 -13 5 -21 -3 -7 -2 -15 2 -18 13 -8 33 10 36 30 2 10 9 19 17 19 10 0 13
-10 11 -34 -3 -31 -2 -33 12 -22 13 11 16 11 16 1 0 -9 7 -7 20 5 20 18 21 18
27 -3 5 -22 6 -22 26 -5 11 10 17 13 14 6 -4 -6 -3 -14 3 -18 5 -3 10 -2 10 2
0 5 9 9 20 10 14 1 20 -4 20 -18 0 -19 15 -26 24 -11 3 5 19 7 37 4 22 -3 30
-1 25 7 -4 6 -3 11 2 11 6 0 12 -7 16 -15 3 -8 12 -12 21 -9 8 3 12 11 8 18
-4 6 1 5 10 -3 9 -7 17 -20 17 -28 0 -11 5 -10 24 4 13 10 22 21 20 24 -2 3 5
6 14 6 17 0 39 -17 38 -29 -1 -3 3 -10 8 -15 5 -4 6 -3 3 3 -4 7 0 17 8 24 13
11 14 10 9 -5 -4 -11 3 -7 21 10 19 20 29 24 35 16 4 -7 10 -13 13 -14 9 -3
47 36 47 49 0 7 6 17 14 21 14 8 16 12 16 33 0 5 6 7 14 4 8 -3 12 -12 10 -19
-3 -7 -1 -16 5 -20 6 -3 11 -15 11 -25 0 -13 5 -18 16 -13 10 4 17 -1 21 -16
3 -11 9 -21 14 -21 5 0 8 -6 6 -12 -1 -7 4 -12 11 -10 7 1 17 -9 24 -23 6 -13
15 -22 19 -19 5 3 11 -7 15 -21 3 -14 10 -25 15 -25 5 0 8 -3 8 -7 -3 -20 2
-34 10 -29 8 5 36 -20 36 -33 0 -3 8 -4 17 -3 11 2 18 -5 20 -20 2 -13 9 -23
16 -23 7 0 17 -6 21 -14 5 -7 13 -11 19 -7 5 3 12 -3 15 -14 3 -11 9 -19 14
-18 13 5 53 -41 53 -61 0 -11 5 -21 12 -23 8 -3 13 -47 15 -139 1 -74 3 -137
3 -141 0 -5 7 -8 15 -8 8 0 19 17 25 43 6 23 15 56 20 74 4 17 5 34 2 37 -3 3
0 6 6 6 7 0 12 10 12 23 0 12 11 34 25 49 14 15 25 32 25 37 0 5 9 12 19 16
11 3 22 12 25 20 3 8 12 12 19 9 9 -3 16 3 20 15 3 14 11 19 20 15 8 -3 18 0
22 5 3 6 11 9 16 5 14 -8 40 16 32 30 -4 6 0 5 9 -2 14 -11 18 -10 28 8 8 14
17 19 30 15 13 -4 22 1 30 15 6 12 17 20 23 17 20 -7 33 16 32 55 -1 24 4 39
13 43 11 4 13 -1 8 -20 -4 -15 -2 -25 4 -25 6 0 8 -5 4 -13 -5 -8 0 -7 15 3
12 8 22 19 21 24 -3 15 24 26 32 13 5 -8 11 0 19 21 8 24 14 30 23 23 9 -8 16
-1 25 24 7 20 16 33 20 31 4 -3 15 11 24 30 10 19 21 33 26 30 5 -3 11 8 15
25 3 18 10 28 17 24 6 -4 13 2 16 14 3 12 9 21 14 21 5 0 8 3 8 8 -4 22 3 30
21 27 11 -2 24 3 29 13 8 14 10 13 16 -11 4 -15 11 -25 15 -22 5 3 11 1 15 -4
3 -6 11 -8 18 -5 7 2 24 -7 37 -21 15 -16 27 -22 35 -15 7 6 20 1 39 -16 15
-15 30 -24 33 -20 3 3 23 -4 44 -14 25 -13 40 -16 44 -9 5 7 13 5 25 -6 10 -9
28 -17 41 -18 13 0 30 -9 37 -19 7 -10 23 -18 35 -18 43 -1 82 -7 101 -15 13
-6 21 -5 24 3 2 7 11 4 25 -8 16 -15 23 -17 29 -8 6 10 8 10 8 0 0 -7 8 -12
19 -10 10 2 33 -9 50 -25 17 -15 31 -23 31 -17 0 12 90 -74 149 -143 22 -27
41 -45 41 -40 0 4 5 1 10 -7 8 -11 10 -8 8 15 -2 17 -9 36 -15 43 -7 7 -13 22
-13 33 0 10 -5 19 -11 19 -5 0 -8 4 -4 9 3 5 1 12 -4 16 -6 3 -8 12 -4 20 3 8
0 15 -6 15 -6 0 -10 3 -9 8 1 4 -4 27 -11 51 -8 27 -10 62 -6 90 12 77 11 96
-3 93 -8 -1 -11 2 -8 7 4 5 -2 14 -11 20 -16 9 -16 10 -1 11 9 0 20 -4 23 -10
3 -5 13 -10 22 -10 9 0 13 3 10 7 -4 3 -2 12 4 19 6 8 9 21 5 29 -3 9 0 18 7
21 7 2 14 16 15 30 1 14 9 32 17 40 17 18 19 30 5 39 -5 3 -7 12 -4 20 4 8 10
12 15 9 14 -8 23 27 12 46 -9 13 -7 19 8 28 16 10 17 15 7 32 -9 15 -10 22 -1
31 9 9 9 16 0 30 -9 14 -9 24 0 37 7 12 8 24 1 36 -7 13 -6 22 6 34 12 14 30
17 90 15 42 -1 78 3 81 8 4 5 14 5 26 -1 11 -6 24 -8 30 -5 6 4 38 9 71 11 34
2 67 9 74 15 8 7 14 7 19 -1 4 -7 12 -7 25 0 10 5 29 10 42 10 13 0 28 4 34
10 5 5 18 11 29 13 11 2 28 7 38 12 9 4 23 5 31 2 8 -3 17 1 20 10 4 8 13 13
21 9 8 -3 17 -1 20 4 4 6 15 10 26 10 10 0 19 5 19 11 0 5 8 9 18 7 9 -1 22 0
27 4 10 6 84 19 110 19 52 1 191 -14 206 -22 18 -9 19 -5 19 70 0 50 -5 84
-13 93 -6 7 -26 54 -42 103 -28 83 -29 94 -18 139 8 33 9 56 2 74 -7 18 -7 28
0 30 7 2 5 14 -4 33 -9 17 -11 29 -5 29 5 0 10 9 10 20 0 11 -5 20 -11 20 -7
0 -9 9 -6 22 3 11 -1 34 -8 49 -10 19 -11 29 -4 31 8 3 6 15 -4 39 -13 32 -13
37 2 48 14 11 14 11 -3 6 -15 -4 -17 -3 -7 8 9 11 8 17 -4 27 -9 7 -13 21 -10
31 4 11 2 19 -5 19 -6 0 -9 4 -6 8 3 5 -3 18 -12 28 -10 10 -16 27 -14 37 2 9
-1 17 -7 17 -6 0 -10 3 -9 8 0 4 -2 15 -7 25 -4 10 -5 21 -2 24 4 3 2 14 -4
24 -7 15 -6 19 5 19 8 0 17 8 20 18 4 10 26 40 51 65 25 26 41 47 37 47 -4 0
1 5 11 11 9 6 15 14 12 20 -4 5 -1 9 4 9 6 0 11 7 11 15 0 8 5 15 12 15 6 0 8
3 5 7 -4 3 0 14 8 23 23 25 18 384 -5 386 -8 1 -19 3 -25 4 -5 1 -14 2 -19 1
-4 -1 -13 2 -20 7 -6 5 -24 13 -41 17 -16 5 -33 9 -37 10 -5 2 -14 3 -22 4 -7
0 -29 12 -49 25 -19 13 -38 22 -41 19 -2 -3 -11 -1 -18 3 -7 5 -15 9 -18 10
-3 0 -25 6 -50 13 -25 7 -53 15 -63 17 -10 1 -43 15 -74 29 -64 31 -92 38
-148 37 -22 0 -44 3 -50 7 -5 4 -27 7 -47 7 -21 -1 -38 2 -38 6 0 4 -9 5 -20
3 -11 -2 -20 0 -20 4 0 9 -119 9 -135 0 -18 -10 -85 -10 -85 0 0 5 5 22 12 38
6 15 12 30 12 33 1 3 5 11 10 18 4 7 5 16 2 19 -3 3 2 19 10 35 9 17 13 32 10
36 -3 3 0 12 6 20 7 8 13 33 14 56 4 72 13 121 24 124 17 6 38 67 35 102 -1
19 6 47 15 64 11 20 17 48 15 76 -1 25 2 52 6 61 5 10 -1 32 -15 62 -13 25
-22 48 -20 50 3 2 -2 10 -11 17 -8 7 -15 21 -15 31 0 13 -5 17 -17 12 -10 -4
-14 -2 -10 4 4 6 1 14 -5 16 -10 4 -10 8 1 15 8 6 15 19 16 29 0 10 4 24 9 31
4 6 3 12 -2 12 -5 0 -7 13 -4 29 2 15 -3 42 -12 60 -9 17 -17 34 -17 38 -1 5
-3 13 -5 18 -7 24 -17 111 -15 128 1 10 -2 24 -8 30 -5 7 -11 39 -12 70 -2 42
-7 62 -19 70 -10 7 -17 16 -16 21 0 5 -9 15 -21 24 -21 13 -23 13 -23 -2 0
-10 -4 -15 -9 -11 -5 3 -22 -6 -37 -20 -15 -14 -36 -25 -47 -25 -11 0 -25 -7
-32 -16 -10 -15 -13 -15 -28 0 -24 24 -185 15 -232 -13 -19 -11 -51 -23 -72
-27 -21 -4 -44 -11 -50 -17 -7 -5 -13 -6 -13 -1 0 4 -7 -1 -15 -12 -8 -10 -15
-15 -15 -10 0 5 -6 4 -13 -2 -7 -6 -28 -14 -46 -17 -55 -10 -198 -91 -207
-118 -3 -10 -8 -16 -11 -14 -2 3 -15 -5 -27 -17 -13 -11 -40 -32 -61 -46 -20
-14 -46 -33 -56 -42 -10 -10 -23 -18 -29 -18 -5 0 -10 -5 -10 -12 0 -6 -3 -9
-6 -5 -7 7 -20 -3 -82 -60 -25 -24 -41 -43 -37 -43 5 0 -6 -11 -25 -25 -42
-31 -80 -33 -80 -6 0 11 -9 23 -20 26 -11 4 -20 15 -20 26 0 11 -4 18 -9 14
-5 -3 -17 2 -25 11 -9 8 -16 11 -16 6 0 -5 -6 -9 -12 -10 -7 -1 -25 -4 -40 -8
-26 -6 -26 -5 -18 30 5 21 4 38 -1 42 -6 3 -7 15 -3 26 5 15 3 19 -7 13 -11
-6 -12 -5 -1 6 15 16 16 33 1 23 -8 -4 -8 0 0 15 9 16 9 21 -1 21 -9 0 -9 3 2
10 11 7 11 10 2 10 -7 0 -10 5 -7 10 3 6 -4 14 -17 19 -13 5 -34 18 -47 30
-13 11 -27 18 -31 16 -4 -3 -11 2 -14 11 -3 8 -10 13 -15 10 -5 -4 -17 2 -27
11 -10 10 -20 18 -23 19 -3 0 -15 4 -25 9 -10 5 -29 9 -42 9 -24 2 -84 49 -84
67 0 5 -4 8 -9 5 -5 -4 -11 -1 -13 5 -2 7 -12 7 -28 1 -18 -7 -29 -6 -38 4 -7
8 -17 12 -23 9 -5 -4 -9 -1 -9 5 0 6 -4 9 -9 5 -5 -3 -12 -1 -16 5 -4 6 -10 8
-15 5 -4 -3 -10 2 -14 10 -3 8 -11 15 -18 15 -7 0 -35 21 -63 46 -27 25 -62
52 -77 60 -16 8 -28 19 -28 24 0 6 -5 10 -11 10 -7 0 -27 15 -45 34 -18 19
-34 32 -36 30 -2 -2 -5 6 -5 17 -2 22 -29 48 -52 49 -9 0 -11 -7 -6 -22z
m-945 -4178 c0 -5 -2 -10 -4 -10 -3 0 -8 5 -11 10 -3 6 -1 10 4 10 6 0 11 -4
11 -10z m341 -103 c-10 -9 -11 -8 -5 6 3 10 9 15 12 12 3 -3 0 -11 -7 -18z
m1529 -61 c0 -8 -7 -16 -15 -20 -8 -3 -15 -4 -15 -2 0 3 -3 11 -6 20 -4 12 0
16 15 16 12 0 21 -6 21 -14z"/>
<path d="M993 3777 c1 -7 -7 -11 -20 -10 -22 3 -30 -7 -17 -20 8 -7 46 11 56
27 5 8 8 7 8 -1 0 -7 5 -13 11 -13 5 0 8 4 4 10 -3 5 7 7 26 5 17 -2 28 -1 25
2 -12 13 -96 13 -93 0z"/>
<path d="M970 705 c0 -8 2 -15 4 -15 2 0 6 7 10 15 3 8 1 15 -4 15 -6 0 -10
-7 -10 -15z"/>
<path d="M504 661 c21 -14 35 -17 46 -11 10 5 20 6 24 2 4 -3 4 2 0 13 -4 10
-9 14 -12 7 -2 -8 -11 -8 -28 -1 -45 16 -62 11 -30 -10z"/>
</g>
</svg>
